<svg xmlns="http://www.w3.org/2000/svg" viewBox="0 0 19 19">
<defs>
<style>.cls-1{fill:#7f868a;}</style>
</defs>
<title>time</title>
<g id="Слой_2" data-name="Слой 2">
<g id="Слой_2-2" data-name="Слой 2">
<path class="cls-1" d="M9.5,2.24A7.26,7.26,0,1,1,2.24,9.5,7.27,7.27,0,0,1,9.5,2.24M9.5,0A9.5,9.5,0,1,0,19,9.5,9.5,9.5,0,0,0,9.5,0Z"/>
<path class="cls-1" d="M13.25,13.16a1.11,1.11,0,0,1-.53-.13L9,11a1.12,1.12,0,0,1-.59-1V4.93a1.12,1.12,0,0,1,2.24,0V9.36l3.17,1.7a1.12,1.12,0,0,1-.53,2.1Z"/>
</g>
</g>
</svg>